{
  "asset": {
    "version": "2.0",
    "generator": "Sketchup glTF Exporter v1.2.6 by Centaur"
  },
  "scene": 0,
  "scenes": [
    {
      "nodes": [
        0
      ]
    }
  ],
  "samplers": [
    {
    }
  ],
  "nodes": [
    {
      "name": "root",
      "mesh": 0
    }
  ],
  "materials": [
    {
      "pbrMetallicRoughness": {
        "baseColorFactor": [
          1.0,
          1.0,
          0.1304,
          1.0
        ],
        "metallicFactor": 0.1,
        "roughnessFactor": 0.9
      },
      "name": "Color E03",
      "doubleSided": true
    },
    {
      "pbrMetallicRoughness": {
        "baseColorFactor": [
          0.325,
          0.0,
          0.0,
          1.0
        ],
        "metallicFactor": 0.1,
        "roughnessFactor": 0.9
      },
      "name": "Color A07",
      "doubleSided": true
    },
    {
      "pbrMetallicRoughness": {
        "baseColorFactor": [
          0.0915,
          0.0915,
          0.0915,
          1.0
        ],
        "metallicFactor": 0.1,
        "roughnessFactor": 0.9
      },
      "name": "Color M06",
      "doubleSided": true
    }
  ],
  "meshes": [
    {
      "primitives": [
        {
          "attributes": {
            "POSITION": 0,
            "NORMAL": 1
          },
          "indices": 2,
          "mode": 4,
          "material": 0
        },
        {
          "attributes": {
            "POSITION": 0,
            "NORMAL": 1
          },
          "indices": 3,
          "mode": 4,
          "material": 1
        },
        {
          "attributes": {
            "POSITION": 0,
            "NORMAL": 1
          },
          "indices": 4,
          "mode": 4,
          "material": 2
        }
      ]
    }
  ],
  "accessors": [
    {
      "bufferView": 0,
      "componentType": 5126,
      "count": 104,
      "type": "VEC3",
      "min": [
        -3.7071067811865452,
        -1.83697019872103e-16,
        -3.4999999999999982
      ],
      "max": [
        5.5,
        6.707106781186545,
        3.499999999999997
      ]
    },
    {
      "bufferView": 1,
      "componentType": 5126,
      "count": 104,
      "type": "VEC3",
      "min": [
        -1.0,
        -1.0,
        -1.0
      ],
      "max": [
        1.0,
        0.9999999999999999,
        1.0
      ]
    },
    {
      "bufferView": 2,
      "componentType": 5121,
      "count": 96,
      "type": "SCALAR"
    },
    {
      "bufferView": 2,
      "componentType": 5121,
      "count": 96,
      "type": "SCALAR",
      "byteOffset": 96
    },
    {
      "bufferView": 2,
      "componentType": 5121,
      "count": 6,
      "type": "SCALAR",
      "byteOffset": 192
    }
  ],
  "bufferViews": [
    {
      "buffer": 0,
      "byteLength": 1248,
      "target": 34962,
      "byteStride": 12
    },
    {
      "buffer": 0,
      "byteOffset": 1248,
      "byteLength": 1248,
      "target": 34962,
      "byteStride": 12
    },
    {
      "buffer": 0,
      "byteOffset": 2496,
      "byteLength": 198,
      "target": 34963
    }
  ],
  "buffers": [
    {
      "uri": "data:application/octet-stream;base64,",
      "byteLength": 2694
    }
  ]
}